<svg width="13" height="15" viewBox="0 0 13 15" fill="none" xmlns="http://www.w3.org/2000/svg">
<path d="M8.85 4.39667C8.78985 3.82185 8.53169 3.3753 8.07553 3.05701C7.61937 2.73872 7.0003 2.57957 6.21831 2.57957C5.68696 2.57957 5.23832 2.65083 4.87239 2.79335C4.50646 2.93112 4.22574 3.12352 4.03025 3.37055C3.83976 3.61758 3.74452 3.89786 3.74452 4.2114C3.73449 4.47268 3.79214 4.70071 3.91746 4.89549C4.04779 5.09026 4.22574 5.25891 4.45132 5.40142C4.67689 5.53919 4.93755 5.66033 5.2333 5.76484C5.52906 5.86461 5.84486 5.95012 6.18071 6.02138L7.56423 6.33492C8.23594 6.47743 8.8525 6.66746 9.41393 6.90499C9.97536 7.14252 10.4616 7.43468 10.8726 7.78147C11.2837 8.12826 11.602 8.53682 11.8276 9.00712C12.0582 9.47743 12.176 10.0166 12.181 10.6247C12.176 11.5178 11.9353 12.2922 11.4591 12.9477C10.9879 13.5986 10.3062 14.1045 9.41393 14.4656C8.52668 14.8219 7.45646 15 6.20327 15C4.96011 15 3.87736 14.8195 2.95501 14.4584C2.03768 14.0974 1.32086 13.5629 0.804545 12.8551C0.293246 12.1425 0.0250637 11.2613 0 10.2114H3.15051C3.1856 10.7007 3.33347 11.1093 3.59414 11.4371C3.85981 11.7601 4.21321 12.0047 4.65433 12.171C5.10047 12.3325 5.60425 12.4133 6.16567 12.4133C6.71708 12.4133 7.19579 12.3373 7.60183 12.1853C8.01287 12.0333 8.33118 11.8219 8.55675 11.5511C8.78233 11.2803 8.89511 10.9691 8.89511 10.6176C8.89511 10.2898 8.79235 10.0143 8.58683 9.79097C8.38632 9.56769 8.09057 9.37767 7.69957 9.2209C7.31359 9.06413 6.83989 8.92161 6.27846 8.79335L4.6017 8.3943C3.3034 8.09501 2.27829 7.62708 1.52638 6.9905C0.774469 6.35392 0.40102 5.49644 0.406032 4.41805C0.40102 3.53444 0.64915 2.76247 1.15042 2.10214C1.65671 1.44181 2.35098 0.926366 3.23322 0.55582C4.11546 0.185273 5.11801 0 6.24087 0C7.38377 0 8.38131 0.185273 9.23347 0.55582C10.0907 0.926366 10.7573 1.44181 11.2336 2.10214C11.7098 2.76247 11.9554 3.52732 11.9704 4.39667H8.85Z" fill="#FEBA09"/>
</svg>
