<svg width="21" height="23" viewBox="0 0 21 23" fill="none" xmlns="http://www.w3.org/2000/svg">
<path d="M10.8268 0.13663C10.6649 0.0471525 10.4808 7.32391e-06 10.2933 7.15941e-06C10.1059 6.99491e-06 9.92175 0.047153 9.75979 0.13663C7.82581 1.21368 6.25212 2.78647 5.21993 4.67392C4.18773 6.56136 3.73901 8.6867 3.92542 10.8052L4.08176 12.5349L1.662 13.9366C1.02284 14.2292 0.516983 14.7311 0.237827 15.3495C-0.0413286 15.968 -0.0749212 16.6613 0.143253 17.3014L1.4153 21.6279C1.45984 21.7795 1.54138 21.919 1.65333 22.0352C1.76527 22.1513 1.90449 22.2409 2.05973 22.2967C2.21497 22.3524 2.38187 22.3728 2.54694 22.3561C2.71202 22.3395 2.87064 22.2862 3.00999 22.2007L5.80257 20.4885C6.20076 21.2351 6.67152 21.9449 7.20874 22.6087C7.30764 22.7304 7.43472 22.829 7.58018 22.8969C7.72565 22.9647 7.88562 23 8.04775 23L12.6879 23C12.8269 23 12.9645 22.9741 13.093 22.9238C13.2214 22.8734 13.338 22.7995 13.4363 22.7064C13.4579 22.6859 13.4783 22.6645 13.4984 22.6419C14.0742 21.9885 14.5763 21.2797 14.9964 20.5273L17.7257 22.2007C17.8651 22.2862 18.0237 22.3393 18.1887 22.356C18.3538 22.3726 18.5207 22.3522 18.6759 22.2965C18.8311 22.2407 18.9703 22.1512 19.0823 22.035C19.1942 21.9189 19.2758 21.7794 19.3204 21.6279L20.5946 17.2959C20.7561 16.6692 20.7032 16.0101 20.4438 15.4136C20.1844 14.8172 19.7317 14.3143 19.1512 13.9775L16.5859 12.4949L16.6604 10.8108C16.8543 8.69066 16.4089 6.56198 15.3762 4.67235C14.3435 2.78273 12.7658 1.20983 10.8268 0.13663ZM3.06776 19.7758L2.16699 16.7147C2.09911 16.5133 2.11512 16.2949 2.21174 16.1043C2.30836 15.9137 2.47827 15.7653 2.68662 15.6897L4.2834 14.7668L4.37454 15.7752C4.4661 16.7361 4.66909 17.6845 4.97984 18.6033L3.06776 19.7758ZM18.5538 16.7629L17.6676 19.7754L15.8459 18.6583C16.1725 17.7328 16.3721 16.7714 16.4398 15.7977L16.4846 14.7854L18.0323 15.6799C18.2253 15.7886 18.3786 15.9505 18.4718 16.1441C18.565 16.3376 18.5936 16.5535 18.5538 16.7629ZM14.5491 10.6778L14.3258 15.6928C14.1783 17.6218 13.4319 19.4663 12.1808 20.9942L8.58205 20.9942C7.38829 19.4048 6.6636 17.5423 6.48272 15.599L6.24747 12.9953C6.24651 12.9547 6.24285 12.9142 6.23651 12.8741L6.03539 10.648C5.8916 9.00673 6.20999 7.3587 6.95805 5.87219C7.70611 4.38567 8.85705 3.11393 10.2933 2.18682C11.7389 3.11227 12.8963 4.38814 13.6448 5.88152C14.3933 7.3749 14.7055 9.03116 14.5491 10.6778ZM9.24542 6.96076C9.02339 7.17118 8.87219 7.43927 8.81093 7.73112C8.74967 8.02298 8.78111 8.32549 8.90127 8.60041C9.02143 8.87533 9.22492 9.11031 9.48599 9.27564C9.74707 9.44096 10.054 9.5292 10.368 9.5292C10.682 9.5292 10.9889 9.44096 11.25 9.27564C11.5111 9.11031 11.7146 8.87533 11.8347 8.60041C11.9549 8.32549 11.9863 8.02298 11.9251 7.73112C11.8638 7.43927 11.7126 7.17118 11.4906 6.96076C11.3432 6.82104 11.1682 6.7102 10.9755 6.63458C10.7829 6.55896 10.5765 6.52004 10.368 6.52004C10.1595 6.52004 9.95304 6.55897 9.76042 6.63459C9.5678 6.71021 9.39279 6.82105 9.24537 6.96078L9.24542 6.96076Z" fill="#565758"/>
</svg>
