<svg width="13" height="13" viewBox="0 0 13 13" fill="none" xmlns="http://www.w3.org/2000/svg">
<path d="M11.1429 0C12.1585 0 13 0.841518 13 1.85714V11.1429C13 12.1875 12.1585 13 11.1429 13H1.85714C0.8125 13 0 12.1875 0 11.1429V1.85714C0 0.841518 0.8125 0 1.85714 0H11.1429ZM11.1429 1.39286H1.85714C1.59598 1.39286 1.39286 1.625 1.39286 1.85714V11.1429C1.39286 11.404 1.59598 11.6071 1.85714 11.6071H11.1429C11.375 11.6071 11.6071 11.404 11.6071 11.1429V1.85714C11.6071 1.625 11.375 1.39286 11.1429 1.39286Z" fill="#999999"/>
</svg>
