<svg width="22" height="16" viewBox="0 0 22 16" fill="none" xmlns="http://www.w3.org/2000/svg">
<path d="M17.9381 0L3.16555 0C2.32599 0 1.52082 0.316071 0.927168 0.87868C0.333512 1.44129 0 2.20435 0 3L0 13C0 13.7956 0.333512 14.5587 0.927168 15.1213C1.52082 15.6839 2.32599 16 3.16555 16L17.9381 16C18.7777 16 19.5828 15.6839 20.1765 15.1213C20.7701 14.5587 21.1037 13.7956 21.1037 13V3C21.1037 2.20435 20.7701 1.44129 20.1765 0.87868C19.5828 0.316071 18.7777 0 17.9381 0ZM3.16555 2L17.9381 2C18.218 2 18.4864 2.10536 18.6842 2.29289C18.8821 2.48043 18.9933 2.73478 18.9933 3L10.5518 7.88L2.11037 3C2.11037 2.73478 2.22154 2.48043 2.41942 2.29289C2.61731 2.10536 2.8857 2 3.16555 2ZM18.9933 13C18.9933 13.2652 18.8821 13.5196 18.6842 13.7071C18.4864 13.8946 18.218 14 17.9381 14L3.16555 14C2.8857 14 2.61731 13.8946 2.41942 13.7071C2.22154 13.5196 2.11037 13.2652 2.11037 13L2.11037 5.28L10.0031 9.85C10.1635 9.93777 10.3455 9.98397 10.5307 9.98397C10.7159 9.98397 10.8979 9.93777 11.0583 9.85L18.9933 5.28V13Z" fill="#565758"/>
</svg>
