<svg width="258" height="258" viewBox="0 0 258 258" fill="none" xmlns="http://www.w3.org/2000/svg">
<path d="M0 129C-1.48099e-06 112.059 3.33667 95.2849 9.81953 79.6339C16.3024 63.9828 25.8045 49.762 37.7832 37.7832C49.762 25.8045 63.9828 16.3024 79.6338 9.81954C95.2848 3.33669 112.059 6.24936e-06 129 4.76837e-06L129 64.5C120.53 64.5 112.142 66.1684 104.317 69.4098C96.4914 72.6512 89.381 77.4022 83.3916 83.3916C77.4022 89.381 72.6512 96.4914 69.4098 104.317C66.1683 112.142 64.5 120.53 64.5 129L0 129Z" fill="#2B83E9"/>
<path d="M251.686 89.1368C257.977 108.498 259.596 129.073 256.412 149.18C253.227 169.287 245.329 188.355 233.363 204.824L181.182 166.912C187.165 158.677 191.114 149.143 192.706 139.09C194.298 129.037 193.489 118.749 190.343 109.068L251.686 89.1368Z" fill="#C1DBF9"/>
<path d="M129 2.35159e-07C156.242 -2.14642e-06 182.785 8.62428 204.825 24.6368C226.864 40.6493 243.268 63.228 251.687 89.1368L190.343 109.068C186.134 96.114 177.932 84.8247 166.912 76.8184C155.893 68.8121 142.621 64.5 129 64.5L129 2.35159e-07Z" fill="#E6F0FC"/>
<path d="M233.363 204.824C221.397 221.294 205.704 234.698 187.565 243.94C169.426 253.182 149.358 258 129 258L129 193.5C139.179 193.5 149.213 191.091 158.282 186.47C167.352 181.849 175.199 175.147 181.182 166.912L233.363 204.824Z" fill="#8FBEF3"/>
<path d="M129 258C112.059 258 95.2848 254.663 79.6338 248.18C63.9828 241.698 49.762 232.196 37.7832 220.217C25.8045 208.238 16.3024 194.017 9.81953 178.366C3.33667 162.715 -9.79655e-06 145.941 -1.12775e-05 129L64.5 129C64.5 137.47 66.1683 145.858 69.4098 153.683C72.6512 161.509 77.4022 168.619 83.3916 174.608C89.381 180.598 96.4914 185.349 104.317 188.59C112.142 191.832 120.53 193.5 129 193.5L129 258Z" fill="#5DA0EE"/>
</svg>
